<svg width="48" height="54" viewBox="0 0 48 54" fill="none" xmlns="http://www.w3.org/2000/svg">
<path fill-rule="evenodd" clip-rule="evenodd" d="M10.5918 36.4303L3.97085 48.6712C3.8484 48.9066 3.88338 49.1777 4.06705 49.3846C4.25073 49.5843 4.55685 49.6913 4.86297 49.6556L11.7813 48.8068L15.621 53.6646C15.7872 53.8786 16.0845 53.9999 16.3994 53.9785C16.7055 53.9571 16.9767 53.8001 17.0991 53.5647L23.9825 40.8387L30.8746 53.5647C30.9971 53.8001 31.2682 53.9571 31.5743 53.9785C31.8892 53.9999 32.1866 53.8786 32.3528 53.6646L36.1924 48.8068L43.1108 49.6556C43.4169 49.6913 43.723 49.5843 43.9067 49.3846C44.0904 49.1777 44.1254 48.9066 44.0029 48.6712L37.3819 36.4303C43.7668 32.8493 47.965 26.7859 47.965 19.9165C47.965 8.92389 37.2245 0 23.9825 0C10.7493 0 0 8.92389 0 19.9165C0 26.7859 4.207 32.8493 10.5918 36.4303ZM35.93 37.1793C32.7638 38.6987 29.1429 39.6261 25.277 39.7973L31.7843 51.8242L35.0729 47.6654C35.2478 47.4371 35.5714 47.3159 35.9038 47.3587L41.8251 48.0791L35.93 37.1793ZM12.0437 37.1793L6.14869 48.0791L12.07 47.3587C12.4023 47.3159 12.7259 47.4371 12.9009 47.6654L16.1895 51.8242L22.6968 39.7973C18.8309 39.6261 15.2099 38.6987 12.0437 37.1793ZM23.9825 1.40528C36.2886 1.40528 46.277 9.70143 46.277 19.9165C46.277 30.1315 36.2886 38.4205 23.9825 38.4205C11.6851 38.4205 1.69679 30.1315 1.69679 19.9165C1.69679 9.70143 11.6851 1.40528 23.9825 1.40528ZM23.9825 3.3527C12.9796 3.3527 4.04082 10.7714 4.04082 19.9165C4.04082 29.0544 12.9796 36.4731 23.9825 36.4731C34.9942 36.4731 43.9329 29.0544 43.9329 19.9165C43.9329 10.7714 34.9942 3.3527 23.9825 3.3527ZM23.9825 4.75798C34.0583 4.75798 42.2449 11.549 42.2449 19.9165C42.2449 28.2768 34.0583 35.0749 23.9825 35.0749C13.9067 35.0749 5.72886 28.2768 5.72886 19.9165C5.72886 11.549 13.9067 4.75798 23.9825 4.75798ZM24.7522 8.38175C24.621 8.13208 24.3149 7.96801 23.9825 7.96801C23.6589 7.96801 23.3528 8.13208 23.2216 8.38175L19.6268 14.9088L11.0379 15.7292C10.7055 15.7577 10.4344 15.9503 10.3294 16.2071C10.2245 16.471 10.3207 16.7564 10.5569 16.9418L16.9242 21.7997L15.2099 28.8332C15.1487 29.1043 15.2799 29.3825 15.5423 29.5394C15.8134 29.7035 16.172 29.7178 16.4606 29.5822L23.9825 26.0583L31.5131 29.5822C31.8017 29.7178 32.1603 29.7035 32.4315 29.5394C32.6939 29.3825 32.8251 29.1043 32.7638 28.8332L31.0496 21.7997L37.4169 16.9418C37.6531 16.7564 37.7493 16.471 37.6443 16.2071C37.5394 15.9503 37.2682 15.7577 36.9359 15.7292L28.3469 14.9088L24.7522 8.38175ZM23.9825 10.3648L27.0087 15.8504C27.1312 16.0787 27.3848 16.2285 27.6822 16.257L34.9067 16.949L29.5539 21.0364C29.3353 21.2005 29.2391 21.4501 29.2915 21.6927L30.7347 27.6063L24.4023 24.6388C24.1487 24.5175 23.8251 24.5175 23.5714 24.6388L17.2391 27.6063L18.6822 21.6927C18.7347 21.4501 18.6385 21.2005 18.4198 21.0364L13.0671 16.949L20.2915 16.257C20.5889 16.2285 20.8426 16.0787 20.965 15.8504L23.9825 10.3648Z" fill="black"/>
</svg>
