<svg width="64" height="63" viewBox="0 0 64 63" fill="none" xmlns="http://www.w3.org/2000/svg">
<mask id="mask0_206_154" style="mask-type:luminance" maskUnits="userSpaceOnUse" x="0" y="0" width="64" height="63">
<path d="M0.379028 0.124268H63.9031V62.6933H0.379028V0.124268Z" fill="white"/>
</mask>
<g mask="url(#mask0_206_154)">
<path d="M57.0515 54.0725C58.1022 52.9732 59.0507 51.7582 59.8825 50.444C62.4874 46.3857 63.8665 41.6662 63.8665 36.8061C63.8665 25.499 56.475 15.6963 45.8585 12.8282C41.5681 4.98432 33.4908 0.124268 24.6838 0.124268C11.3019 0.124268 0.415405 11.2743 0.415405 24.9866C0.415405 29.8466 1.79446 34.5579 4.39204 38.608C5.20196 39.8891 6.15052 41.1041 7.22312 42.2447L3.45808 48.3942C3.32674 48.6174 3.28296 48.8984 3.34134 49.1629C3.39971 49.4191 3.55294 49.6423 3.77183 49.7663C5.04873 50.4853 6.50805 50.8738 7.98196 50.8738C10.7036 50.8738 13.1771 49.6257 14.6218 47.5842C15.8623 48.171 17.1319 48.6339 18.4088 48.9728C22.7065 56.8084 30.7838 61.6684 39.598 61.6684C43.115 61.6684 46.4933 60.9163 49.6527 59.4368C51.0829 61.4618 53.5564 62.6933 56.2926 62.6933C57.7957 62.6933 59.255 62.3214 60.51 61.6106C60.7216 61.4866 60.8822 61.2717 60.9405 61.0072C60.9989 60.7427 60.9551 60.4699 60.8238 60.2468L57.0515 54.0725ZM13.6368 45.9311C12.6007 47.7991 10.3825 49.0058 7.98196 49.0058C7.09178 49.0058 6.21619 48.8323 5.39897 48.5182L8.99618 42.6332C9.23697 42.2447 9.1786 41.7158 8.86485 41.4017C7.65361 40.2032 6.60291 38.8973 5.73461 37.5169C3.33404 33.781 2.06443 29.4499 2.06443 24.9866C2.06443 12.3075 12.214 1.99225 24.6838 1.99225C33.0384 1.99225 40.6779 6.6374 44.6327 14.1259C46.3839 17.4238 47.3178 21.1762 47.3178 24.9866C47.3178 37.6574 37.161 47.9727 24.6838 47.9727C22.7575 47.9727 20.8823 47.7247 19.1019 47.237C17.5989 46.8651 16.1031 46.3031 14.6729 45.5757C14.3008 45.3856 13.8557 45.5344 13.6368 45.9311ZM56.2926 60.8254C53.8702 60.8254 51.652 59.6351 50.6451 57.7837C50.4918 57.5027 50.2219 57.3456 49.9446 57.3456C49.8278 57.3456 49.7184 57.3704 49.609 57.42C46.486 58.9987 43.115 59.8005 39.598 59.8005C31.9366 59.8005 24.8735 55.8992 20.7072 49.5018C20.8166 49.5183 20.9261 49.5266 21.0355 49.5431C21.466 49.6092 21.8965 49.6671 22.3343 49.7084C22.5095 49.7332 22.6846 49.7497 22.867 49.7663C23.4653 49.8076 24.0709 49.8406 24.6838 49.8406C38.0731 49.8406 48.9669 38.6906 48.9669 24.9866C48.9669 24.5072 48.9523 24.0278 48.9231 23.5484C48.9158 23.3996 48.9012 23.2509 48.8866 23.1021C48.8647 22.7715 48.8355 22.4408 48.799 22.1185C48.7844 21.9449 48.7553 21.7713 48.7334 21.606C48.6969 21.292 48.6458 20.9861 48.5947 20.6803C48.5655 20.5067 48.5364 20.3414 48.5072 20.1761C48.4415 19.8372 48.3685 19.5066 48.2883 19.176C48.2591 19.0438 48.2299 18.9115 48.2007 18.7793C48.084 18.3247 47.9599 17.8701 47.8213 17.4238C47.7921 17.3328 47.7629 17.2502 47.7337 17.1593C47.617 16.8038 47.4929 16.4402 47.3616 16.0848C47.3032 15.936 47.2376 15.7789 47.1792 15.6302C47.1062 15.4483 47.0406 15.2747 46.9676 15.0929C56.0299 18.2338 62.2101 26.9042 62.2101 36.8061C62.2101 41.2694 60.9405 45.6088 58.54 49.353C57.6425 50.7746 56.5918 52.0806 55.4243 53.2212C55.1033 53.5353 55.0449 54.0643 55.2784 54.461L58.8829 60.3542C58.073 60.6683 57.1974 60.8254 56.2926 60.8254Z" fill="black"/>
</g>
<path d="M15.5268 22.3335C13.9726 22.3335 12.8635 23.6394 12.8635 25.4991C12.8635 27.301 13.9288 28.6565 15.483 28.6565C17.1247 28.6565 18.139 27.301 18.139 25.4991C18.139 23.6394 17.081 22.3335 15.5268 22.3335Z" fill="black"/>
<path d="M24.6694 28.6565C26.3111 28.6565 27.3327 27.301 27.3327 25.4991C27.3327 23.6394 26.2674 22.3335 24.7132 22.3335C23.159 22.3335 22.0499 23.6394 22.0499 25.4991C22.0499 27.301 23.1152 28.6565 24.6694 28.6565Z" fill="black"/>
<path d="M33.8557 28.6565C35.4974 28.6565 36.519 27.301 36.519 25.4991C36.519 23.6394 35.4537 22.3335 33.9068 22.3335C32.3526 22.3335 31.2435 23.6394 31.2435 25.4991C31.2435 27.301 32.3088 28.6565 33.8557 28.6565Z" fill="black"/>
</svg>
