<svg width="73" height="67" viewBox="0 0 73 67" fill="none" xmlns="http://www.w3.org/2000/svg">
<mask id="mask0_206_99" style="mask-type:luminance" maskUnits="userSpaceOnUse" x="34" y="0" width="5" height="10">
<path d="M34.4906 0.471191H38.2264V9.57966H34.4906V0.471191Z" fill="white"/>
</mask>
<g mask="url(#mask0_206_99)">
<path d="M35.0598 8.72005C35.0598 8.76138 35.0743 8.77791 35.1108 8.77791L36.9788 8.79444C37.0225 8.79444 37.0444 8.76965 37.0444 8.72832C37.0444 8.70352 37.0444 8.68699 37.0444 8.67046C37.0444 6.36442 37.0444 4.0501 37.0444 1.711C37.0444 1.03323 36.5629 0.495982 35.9645 0.570372C35.0671 0.677822 35.0233 1.75232 35.0598 2.64499V8.72005Z" fill="black"/>
</g>
<path d="M34.1622 15.6795L36.8181 15.663H37.9272C37.9637 15.663 37.9783 15.6464 37.9783 15.6051C37.971 14.5223 37.9637 13.4396 37.9564 12.3651C37.9564 11.803 37.9053 11.4146 37.8032 11.1831C37.6062 10.7285 37.2559 10.5384 36.7452 10.5963L34.6875 10.6211C34.6583 10.6211 34.6291 10.6293 34.6 10.6459C34.2789 10.8856 34.1184 11.1997 34.1184 11.5799C34.1111 12.9354 34.1111 14.2909 34.1184 15.6382C34.1184 15.6547 34.133 15.6795 34.1622 15.6795Z" fill="black"/>
<path d="M4.18793 29.6977C4.19523 29.6977 4.19523 29.6894 4.19523 29.6894C4.43601 28.7554 4.74977 27.8958 5.13649 27.1106C5.50132 26.3667 6.04856 25.4162 6.76362 24.259C7.20871 23.5482 7.8727 22.7713 8.76289 21.9199C8.9453 21.6968 9.14961 21.4901 9.36121 21.3165C10.2295 20.5975 11.1416 19.9693 12.0901 19.4155C13.8705 18.465 15.7019 17.8781 17.5772 17.6467C18.6935 17.5062 19.9194 17.4814 21.2473 17.5723L19.9412 15.8035C19.8902 15.7291 19.8099 15.6547 19.7078 15.5886C19.6275 15.539 19.5326 15.5142 19.4232 15.506C16.0449 15.3737 12.4841 16.3738 9.63848 18.5146C7.78515 19.8949 6.37691 21.6224 5.40646 23.7052C4.86651 24.8789 4.48709 26.2427 4.26819 27.7884L4.18064 29.6894C4.17334 29.6894 4.18064 29.6977 4.18793 29.6977Z" fill="black"/>
<path d="M54.7532 17.7044C56.9276 17.9689 58.956 18.6963 60.824 19.8865C61.6996 20.4155 62.5022 21.0354 63.2318 21.7545C64.0053 22.4653 64.6985 23.2505 65.3041 24.1184C66.3621 25.5979 67.2158 27.1518 67.763 28.9536C67.8433 29.2181 67.9162 29.4744 67.9965 29.7223C67.9965 29.7306 68.0038 29.7306 68.0038 29.7306C68.0111 29.7306 68.0184 29.7223 68.0184 29.7223C67.9454 28.6478 67.8798 27.5155 67.6609 26.5236C67.4712 25.6805 67.2085 24.8623 66.8801 24.0605C65.8075 21.5396 64.0418 19.5393 61.9258 18.1508C58.9998 16.291 55.8623 15.4066 52.5205 15.4976C51.8711 15.9522 51.3311 16.8448 50.8641 17.5639C52.1264 17.4895 53.4179 17.5391 54.7532 17.7044Z" fill="black"/>
<path d="M22.1375 23.2837H22.2469C22.7358 23.2919 23.1444 22.8373 23.1444 22.267L23.159 20.4982C23.1663 19.9279 22.765 19.4651 22.2688 19.4568H22.1667C21.6705 19.4568 21.2692 19.9114 21.2619 20.4734L21.2546 22.2505C21.2473 22.8208 21.6486 23.2837 22.1375 23.2837Z" fill="black"/>
<path d="M49.7916 23.2672H49.8937C50.3972 23.2672 50.8131 22.8043 50.8131 22.2175V20.5231C50.8131 19.9445 50.4118 19.4734 49.901 19.4734H49.7989C49.2954 19.4734 48.8795 19.9363 48.8795 20.5231L48.8722 22.2175C48.8722 22.7961 49.2808 23.2672 49.7916 23.2672Z" fill="black"/>
<path d="M61.1159 22.2422C60.2111 21.5479 59.372 21.1512 58.2483 20.7958C57.847 20.6635 57.4384 20.523 57.0298 20.3577C56.8546 20.3908 56.6576 20.3577 56.4387 20.2502C56.4314 20.2502 56.4314 20.2502 56.4242 20.2502C56.4169 20.2502 56.4169 20.2585 56.4023 20.2585C56.3877 20.2585 56.3877 20.2668 56.4096 20.275C57.0735 20.523 57.7375 20.7875 58.4015 21.052C59.9849 21.6802 61.3785 22.6555 62.6044 23.9779L63.5237 25.0111C62.8378 23.9779 62.0352 23.0522 61.1159 22.2422Z" fill="black"/>
<path d="M57.504 23.3002C57.9929 23.4159 58.3723 23.7135 58.6423 24.1846C58.9196 24.664 59.0071 25.1764 58.905 25.7302C58.8028 26.284 58.5475 26.7138 58.1315 27.0196C57.7156 27.3337 57.2633 27.4246 56.7744 27.3089C56.2855 27.1932 55.9061 26.8956 55.6361 26.4245C55.3588 25.9451 55.2786 25.4327 55.3734 24.8789C55.4756 24.3251 55.7383 23.8953 56.1542 23.5895C56.5628 23.2754 57.0152 23.1845 57.504 23.3002Z" fill="black"/>
<path d="M14.6512 28.2677C14.7752 28.3834 14.9868 28.4661 15.1109 28.3586C15.6216 27.8875 16.0959 27.4081 16.5483 26.9204C16.6067 26.8543 16.6358 26.7634 16.6358 26.6725L16.614 24.4243C16.614 24.3912 16.6067 24.3664 16.5921 24.3416C16.3002 23.8374 15.9864 23.5316 15.6289 23.4242C15.2568 23.3085 14.7752 23.3333 14.1915 23.5068C13.7245 23.6391 13.3086 24.1929 13.3013 24.788C13.294 25.4327 13.294 26.0691 13.3086 26.6973C13.3086 26.7551 13.3232 26.813 13.3597 26.8626C13.761 27.375 14.1915 27.8462 14.6512 28.2677Z" fill="black"/>
<path d="M27.1429 30.1357C27.3691 30.2349 27.7631 30.2845 28.3103 30.2763C33.4179 30.2597 38.5256 30.2597 43.6332 30.268C44.1585 30.268 44.5598 30.2101 44.8152 30.1027C45.7565 29.7059 46.2089 28.7472 46.1651 27.2181C46.1724 24.6227 46.1724 21.9778 46.1651 19.2833C46.1651 18.1922 45.5668 17.6054 44.6401 17.6054C38.8393 17.6219 33.0385 17.6137 27.2377 17.5889C26.6029 17.5889 26.1797 17.8451 25.9754 18.3741C25.8879 18.6138 25.8441 19.0932 25.8514 19.804C25.866 22.2506 25.8733 24.6888 25.866 27.1189C25.7492 28.3091 26.1214 29.6811 27.1429 30.1357Z" fill="black"/>
<path d="M50.8932 30.1108C50.9443 30.6646 51.1486 31.1027 51.5134 31.4168C52.3671 32.1524 53.199 32.0863 54.0016 31.2101C54.3007 30.8878 54.454 30.5158 54.4759 30.1026C54.6729 26.9039 50.616 27.1022 50.8932 30.1108Z" fill="black"/>
<path d="M60.4591 28.1272C59.8534 28.5735 59.5835 29.243 59.6564 30.1357C59.8899 31.1689 60.3861 31.7474 61.1376 31.8797C62.3635 32.0946 63.3412 31.1358 63.2828 29.6646C63.1004 28.1024 61.6338 27.2511 60.4591 28.1272Z" fill="black"/>
<path d="M12.2724 27.9702C11.6814 27.9536 11.0977 27.9454 10.514 27.9619C10.3024 27.9619 10.1272 28.0115 9.9813 28.1024C9.31002 28.5322 9.02546 29.1934 9.12031 30.1026C9.22976 30.9374 9.71133 31.8136 10.4994 31.8136C11.0831 31.8136 11.6595 31.8053 12.2432 31.8053C12.2724 31.8053 12.3089 31.797 12.3308 31.7722C12.7613 31.3176 13.1626 30.8052 13.5347 30.2349C13.6953 30.1026 13.7609 29.9208 13.739 29.6894C13.7245 29.5488 13.6515 29.4083 13.5201 29.2596C13.1334 28.8463 12.7467 28.433 12.36 28.0115C12.3381 27.9784 12.3089 27.9702 12.2724 27.9702Z" fill="black"/>
<mask id="mask1_206_99" style="mask-type:luminance" maskUnits="userSpaceOnUse" x="53" y="30" width="20" height="35">
<path d="M53.1698 30.739H72.0315V64.5941H53.1698V30.739Z" fill="white"/>
</mask>
<g mask="url(#mask1_206_99)">
<path d="M71.4258 50.5511C70.5064 46.6912 69.5287 42.856 68.6166 38.9961C68.0183 36.4421 67.3908 33.8963 66.7341 31.3589C66.7341 31.3589 66.7341 31.3506 66.7268 31.3506C66.7195 31.3506 66.7195 31.3589 66.7195 31.3671C66.7487 32.9045 66.2963 34.1939 65.7272 35.5494C65.7053 35.6155 65.698 35.6817 65.7126 35.7478C66.3839 38.7894 67.1062 41.8063 67.8797 44.8232C68.4269 46.9557 68.8939 49.0881 69.3755 51.2206C69.7768 53.0142 69.6892 54.8574 69.1055 56.7667C68.9888 57.1469 68.8647 57.4362 68.7407 57.6428C68.7334 57.6511 68.7188 57.6594 68.7115 57.6594C68.6823 57.6594 68.6677 57.6428 68.6677 57.6098C68.6604 56.246 68.4561 55.0062 68.0475 53.9069C67.2741 51.8157 66.3693 49.8155 65.3259 47.8979H65.3186C65.3113 47.8979 65.3113 47.9062 65.3113 47.9062C65.822 49.708 66.2088 51.543 66.4787 53.4192C66.6101 54.3367 66.6612 55.4442 66.632 56.7419C66.5955 58.0065 66.3401 59.8579 65.4426 60.6018C64.9319 60.9077 64.37 60.949 63.7571 60.7258C62.8304 60.3952 62.0862 59.9985 61.2544 59.362C58.5182 57.2461 56.176 54.3284 54.3372 51.2123C54.2934 51.1545 54.1767 51.047 54.1256 50.9892C54.0745 50.9313 54.06 50.9396 54.0964 51.014C54.5269 52.0306 54.8042 53.1216 55.1617 54.1796C56.8254 59.1389 59.8607 63.9824 64.9902 63.9328C65.2237 63.9328 65.574 63.8667 66.0482 63.7427C69.0252 62.9905 71.0683 59.5604 71.6739 56.3204C72.0168 54.4441 71.8636 52.4026 71.4258 50.5511Z" fill="black"/>
</g>
<path d="M19.7296 31.7061C19.7734 31.7722 19.8683 31.7392 20.0142 31.6317C20.6636 31.1193 20.9263 30.3506 20.8095 29.334C20.6928 28.8215 20.4301 28.4165 20.0215 28.1189C19.8975 28.028 19.7515 27.9784 19.5764 27.9784C18.9781 27.9702 18.3798 27.9867 17.7815 28.0198C17.6063 28.028 17.4531 28.1024 17.3291 28.2512C16.9205 28.6893 16.5046 29.1356 16.0886 29.5736C15.9792 29.6894 15.9865 29.8877 16.0741 30.0365C16.1908 30.2349 16.3075 30.3837 16.4243 30.4911L17.4604 31.6813C18.1682 31.7888 18.9343 31.797 19.7296 31.7061Z" fill="black"/>
<path d="M20.0579 40.7485C20.576 42.5256 21.6194 43.815 23.1882 44.6002C25.5887 45.6003 28.2447 44.7655 29.6821 42.2859C29.9521 41.8809 30.1564 41.4428 30.3023 40.9469C30.8569 39.0128 30.7328 37.2357 29.9302 35.6157C28.6022 32.8964 25.8076 31.8384 23.283 32.9046C20.5468 34.0701 19.1386 37.5746 20.0579 40.7485ZM22.8379 35.0867C24.3483 33.8138 26.4643 33.7642 27.8434 35.3347C28.4271 36.0124 28.7919 36.8142 28.9452 37.7316C29.0108 38.5664 29.0181 39.1202 28.9671 39.4012C28.6314 41.0461 27.8434 42.1701 26.5884 42.7901C24.9247 43.6166 23.086 42.757 22.0645 41.1618C21.0284 39.1533 21.1816 36.5662 22.8379 35.0867Z" fill="black"/>
<path d="M41.6412 40.3765C42.0863 42.352 43.1954 43.7736 44.9392 44.6415C47.2815 45.6994 49.9228 44.658 51.3602 42.3354C52.1993 40.765 52.4474 39.1037 52.1191 37.3679C51.9367 36.3926 51.5208 35.5413 50.9881 34.7643C49.7331 32.9046 47.4201 32.1525 45.4646 32.6732C42.4584 33.4832 40.8824 37.0208 41.6412 40.3765ZM47.3106 34.194C49.164 34.5081 50.4992 36.2108 50.6963 38.3763C50.7035 40.1947 49.8717 41.9883 48.4051 42.7404C46.9166 43.5091 45.4646 43.0545 44.2534 41.9056C42.4 39.6244 42.6773 36.0124 45.2457 34.5825C45.917 34.2023 46.6102 34.0783 47.3106 34.194Z" fill="black"/>
<path d="M14.9138 36.2355C15.6216 36.1694 16.1251 36.1198 16.5191 35.4751C16.5921 35.3429 16.6285 35.1941 16.6285 35.0123C16.6358 34.4006 16.6358 33.789 16.6285 33.1856C16.6285 33.0368 16.5994 32.9542 16.541 32.9294C16.0448 32.3012 15.6289 31.8631 15.3079 31.6152C15.0233 31.392 14.7752 31.4085 14.549 31.6565C14.0528 32.202 13.6661 32.6153 13.3743 32.9046C13.3451 32.9376 13.3378 32.9707 13.3378 33.0038L13.3086 35.004C13.5056 35.9049 14.0383 36.3182 14.9138 36.2355Z" fill="black"/>
<path d="M31.9659 34.1031C31.8565 34.5577 32.0827 35.0288 32.4694 35.1528C32.8561 35.2767 33.2574 35.004 33.3596 34.5411C33.469 34.0865 33.2501 33.6154 32.8634 33.4914C32.4767 33.3757 32.0754 33.6485 31.9659 34.1031Z" fill="black"/>
<path d="M36.6357 34.1859C36.6722 34.409 36.6285 34.6239 36.5117 34.8058C36.3877 34.9959 36.2344 35.1116 36.0301 35.1447C35.8331 35.186 35.6507 35.1364 35.4829 35.0041C35.3224 34.8636 35.2202 34.6818 35.191 34.4504C35.1545 34.2189 35.1983 34.0123 35.3224 33.8222C35.4391 33.6321 35.5996 33.5246 35.7966 33.4833C35.9937 33.4502 36.1761 33.4998 36.3439 33.6321C36.5044 33.7726 36.6066 33.9544 36.6357 34.1859Z" fill="black"/>
<path d="M38.8029 33.5493C38.4599 33.7477 38.3286 34.2601 38.5183 34.6817C38.708 35.1115 39.1385 35.2933 39.4887 35.0949C39.8317 34.8966 39.9557 34.3841 39.766 33.9543C39.5763 33.5328 39.1458 33.3509 38.8029 33.5493Z" fill="black"/>
<path d="M58.9706 34.3096C58.9925 33.6319 58.7517 33.0781 58.2482 32.64C57.2267 31.7474 55.9863 32.202 55.4682 33.5244C55.2566 34.4006 55.3734 35.1279 55.8185 35.7147C56.9713 37.2521 58.9049 36.2355 58.9706 34.3096ZM55.4099 34.2931C55.4099 34.2931 55.4172 34.3014 55.4172 34.3096C55.4172 34.3014 55.4099 34.3014 55.4099 34.2931Z" fill="black"/>
<path d="M37.9346 35.7148C37.6427 35.409 37.1903 35.4173 36.9423 35.7479C36.6796 36.0702 36.7161 36.5827 37.0079 36.8968C37.3071 37.2026 37.7522 37.1861 38.0076 36.8637C38.2629 36.5331 38.2338 36.0206 37.9346 35.7148Z" fill="black"/>
<path d="M34.9284 35.9545C34.7533 35.5578 34.3447 35.3842 34.009 35.5743C33.6734 35.7644 33.542 36.2438 33.7171 36.6406C33.8923 37.0456 34.3009 37.2191 34.6365 37.029C34.9649 36.8389 35.0962 36.3595 34.9284 35.9545Z" fill="black"/>
<path d="M44.5234 39.0127C44.9612 40.765 46.5737 41.8725 48.0477 40.8641C48.77 40.3599 49.1421 39.583 49.164 38.5085C49.2151 37.9051 49.0181 37.31 48.5803 36.7397C46.924 34.599 44.0053 36.2851 44.5234 39.0127Z" fill="black"/>
<path d="M23.7355 40.5583C24.9759 41.7734 26.7708 41.294 27.34 39.5169C27.4859 39.0623 27.5443 38.5912 27.5224 38.1035C27.194 35.6156 24.5162 34.8883 23.232 36.905C22.8307 37.5332 22.7139 38.2027 22.8891 38.897C22.8818 39.5086 23.356 40.1864 23.7355 40.5583Z" fill="black"/>
<path d="M35.5267 42.6662C36.3439 42.9141 36.9715 42.6579 37.4092 41.8892C37.6281 41.5503 37.7011 41.1123 37.6281 40.5833C37.5771 40.0708 37.3582 39.6576 36.9569 39.3517C36.0229 38.6244 34.8044 39.1864 34.5271 40.4924C34.4395 41.0048 34.5271 41.5007 34.7898 41.9967C34.9649 42.3355 35.213 42.5504 35.5267 42.6662Z" fill="black"/>
<mask id="mask2_206_99" style="mask-type:luminance" maskUnits="userSpaceOnUse" x="8" y="45" width="55" height="22">
<path d="M8.3396 45.5508H62.5094V66.173H8.3396V45.5508Z" fill="white"/>
</mask>
<g mask="url(#mask2_206_99)">
<path d="M62.2321 65.9001C62.181 65.8836 62.1372 65.8754 62.0789 65.8588C60.4225 65.4621 59.0362 64.6273 57.752 63.3213C56.3146 61.8584 55.169 60.1144 54.3153 58.0976C53.5273 56.2296 53.0384 54.6427 52.462 52.8739C52.1482 51.9234 51.871 51.2125 51.6156 50.7579C50.5722 48.8652 49.0691 47.8072 47.099 47.5758C46.8363 47.5427 46.1577 47.5262 45.0632 47.5262C38.8903 47.5014 32.7101 47.5014 26.5299 47.5262C25.6033 47.5262 24.9247 47.5758 24.5088 47.6584C22.6846 48.0304 21.291 49.1214 20.3278 50.9398C19.8536 51.8324 19.5836 53.0144 19.2771 54.0641C18.314 57.3785 16.9203 60.5772 14.6584 62.9659C13.272 64.4289 11.6668 65.4208 9.84995 65.9249C9.84265 65.9249 9.84265 65.9332 9.84265 65.9332C9.84265 65.9415 9.84265 65.9415 9.84995 65.9415C10.6891 65.9828 11.5865 66.0076 12.3819 65.834C16.9203 64.8587 19.4231 59.9077 20.7 55.3039C20.897 54.6013 21.1013 53.8905 21.3129 53.1797C21.8601 51.3282 22.9035 50.1876 24.4431 49.7413C24.8298 49.6256 25.399 49.576 26.1505 49.5677C32.5861 49.5347 39.0071 49.5347 45.4427 49.5677C46.3912 49.576 47.0698 49.6256 47.4638 49.7248C48.6751 50.0388 49.6163 50.7993 50.273 51.9977C50.4773 52.378 50.7473 53.0888 51.061 54.1385C52.2066 57.8827 53.3522 61.5195 56.2197 64.0239C57.9855 65.5613 59.9848 66.1894 62.2175 65.9167C62.2248 65.9167 62.2248 65.9167 62.2248 65.9167C62.2394 65.9001 62.2394 65.9001 62.2321 65.9001Z" fill="black"/>
</g>
<mask id="mask3_206_99" style="mask-type:luminance" maskUnits="userSpaceOnUse" x="0" y="30" width="20" height="35">
<path d="M0.22583 30.739H19.5472V64.5941H0.22583V30.739Z" fill="white"/>
</mask>
<g mask="url(#mask3_206_99)">
<path d="M15.359 58.0065C15.8916 57.0229 16.3002 56.0889 16.5921 55.1962C17.0445 53.7994 17.4969 52.4025 17.9639 51.0057C17.9712 50.9809 17.9639 50.9809 17.9493 50.9974C17.7596 51.1792 17.6574 51.4685 17.548 51.6256C16.9205 52.5844 16.2929 53.5679 15.6071 54.4193C14.5053 55.7831 13.3378 57.0642 12.0974 58.2544C11.4991 58.8247 10.7548 59.4033 9.86466 59.9819C8.9307 60.5935 7.96755 60.8663 6.96062 60.8002C6.90954 60.7919 6.83658 60.7754 6.76361 60.7423C6.27474 60.2464 5.96099 59.643 5.80776 58.9239C5.56697 57.7668 5.48671 56.5104 5.57427 55.1632C5.67642 53.4357 5.90991 51.7413 6.26015 50.0634C6.40608 49.3608 6.59579 48.6748 6.82199 48.0053C6.82199 48.0053 6.82199 47.9971 6.81469 47.9971H6.7928H6.7855C6.24556 49.0798 5.61805 50.1461 5.17296 51.2454C4.31926 53.3117 3.64068 55.2458 3.50934 57.5023C3.49474 57.6924 3.45826 57.7006 3.3853 57.5271C2.9475 56.4278 2.69212 55.3037 2.63375 54.1382C2.55349 52.5265 2.9548 50.6007 3.34881 48.9806C4.40682 44.5504 5.45752 40.1119 6.48634 35.6651C6.49364 35.632 6.49364 35.5907 6.47905 35.5659C5.87343 34.417 5.31159 32.6978 5.45752 31.3423C5.45752 31.3257 5.45752 31.3092 5.45023 31.3009C5.42834 31.2679 5.41375 31.2679 5.40645 31.3092C4.97595 33.0119 4.42141 35.3262 3.75013 38.2521C3.03506 41.4095 1.73627 46.4432 0.743934 51.1131C0.53963 52.0719 0.422885 52.8406 0.393699 53.4026C0.262359 55.6177 0.670968 57.6924 1.62682 59.6347C2.61186 61.6515 4.06388 63.0153 5.99747 63.7509C8.02592 64.2055 9.87925 63.8005 11.5502 62.5442C13.0314 61.4201 14.4031 59.7835 15.359 58.0065ZM4.8811 59.5851C4.8811 59.5851 4.8738 59.5769 4.8665 59.5769C4.8738 59.5769 4.8738 59.5769 4.8811 59.5851ZM4.83732 59.5851V59.5934C4.83732 59.5934 4.83732 59.5934 4.83732 59.5851ZM4.85921 59.5769C4.85191 59.5769 4.85191 59.5769 4.85191 59.5851C4.85191 59.5851 4.85191 59.5769 4.85921 59.5769ZM4.82272 59.6099C4.82272 59.6099 4.81543 59.6099 4.81543 59.6182C4.82272 59.6099 4.82272 59.6099 4.82272 59.6099Z" fill="black"/>
</g>
</svg>
