<svg width="69" height="61" viewBox="0 0 69 61" fill="none" xmlns="http://www.w3.org/2000/svg">
<mask id="mask0_206_172" style="mask-type:luminance" maskUnits="userSpaceOnUse" x="0" y="0" width="69" height="61">
<path d="M0.889771 0.909424H68.551V60.3542H0.889771V0.909424Z" fill="white"/>
</mask>
<g mask="url(#mask0_206_172)">
<path d="M65.4645 47.1626C65.4645 52.4938 61.6411 56.8414 56.9348 56.8414H12.5132C7.81423 56.8414 3.99082 52.4938 3.99082 47.1626V14.1176C3.99082 8.77812 7.81423 4.43878 12.5132 4.43878H56.9348C61.6411 4.43878 65.4645 8.77812 65.4645 14.1176V47.1626ZM56.9348 0.917725H12.5132C6.10683 0.917725 0.889771 6.84401 0.889771 14.1176V47.1626C0.889771 54.4362 6.10683 60.3542 12.5132 60.3542H56.9348C63.3485 60.3542 68.5583 54.4362 68.5583 47.1626V14.1176C68.5583 6.84401 63.3485 0.917725 56.9348 0.917725Z" fill="#100F0D"/>
</g>
<path d="M40.3205 21.3084C40.3205 17.8204 42.8232 14.9771 45.895 14.9771C48.9669 14.9771 51.4623 17.8204 51.4623 21.3084C51.4623 24.7964 48.9669 27.6314 45.895 27.6314C42.8232 27.6314 40.3205 24.7964 40.3205 21.3084ZM50.6159 30.359H49.288C52.389 28.863 54.5634 25.3667 54.5634 21.3084C54.5634 15.878 50.6743 11.4561 45.895 11.4561C41.1085 11.4561 37.2194 15.878 37.2194 21.3084C37.2194 25.3667 39.3938 28.863 42.4948 30.359H41.1669C36.103 30.359 31.9805 35.0455 31.9805 40.7982V48.0635C31.9805 49.0306 32.6736 49.824 33.5273 49.824C34.3883 49.824 35.0815 49.0306 35.0815 48.0635V40.7982C35.0815 36.9796 37.8104 33.8801 41.1669 33.8801H50.6159C53.9724 33.8801 56.7086 36.9796 56.7086 40.7982V47.27C56.7086 48.2371 57.4018 49.0223 58.2555 49.0223C59.1165 49.0223 59.8096 48.2371 59.8096 47.27V40.7982C59.8096 35.0455 55.6871 30.359 50.6159 30.359Z" fill="#100F0D"/>
<path d="M24.6255 16.6384H11.1998C10.3388 16.6384 9.64563 17.4236 9.64563 18.399C9.64563 19.366 10.3388 20.1595 11.1998 20.1595H24.6255C25.4865 20.1595 26.1797 19.366 26.1797 18.399C26.1797 17.4236 25.4865 16.6384 24.6255 16.6384Z" fill="#100F0D"/>
<path d="M24.6255 28.8796H11.1998C10.3388 28.8796 9.64563 29.6649 9.64563 30.6402C9.64563 31.6072 10.3388 32.4007 11.1998 32.4007H24.6255C25.4865 32.4007 26.1797 31.6072 26.1797 30.6402C26.1797 29.6649 25.4865 28.8796 24.6255 28.8796Z" fill="#100F0D"/>
<path d="M24.6255 41.1206H11.1998C10.3388 41.1206 9.64563 41.9141 9.64563 42.8811C9.64563 43.8565 10.3388 44.6417 11.1998 44.6417H24.6255C25.4865 44.6417 26.1797 43.8565 26.1797 42.8811C26.1797 41.9141 25.4865 41.1206 24.6255 41.1206Z" fill="#100F0D"/>
</svg>
