<svg width="51" height="57" viewBox="0 0 51 57" fill="none" xmlns="http://www.w3.org/2000/svg">
<mask id="mask0_206_211" style="mask-type:luminance" maskUnits="userSpaceOnUse" x="0" y="0" width="51" height="57">
<path d="M0.860962 0.248047H50.5726V56.5685H0.860962V0.248047Z" fill="white"/>
</mask>
<g mask="url(#mask0_206_211)">
<path d="M29.0987 56.5602H22.3348C22.0137 56.5602 21.7073 56.4941 21.4081 56.3536C21.1163 56.2131 20.8536 56.0147 20.6274 55.7585C20.4012 55.5023 20.2261 55.2047 20.102 54.8741C19.978 54.5352 19.9196 54.1881 19.9196 53.8244V48.4767C19.0149 48.1378 18.1393 47.7328 17.2929 47.2451L13.9583 51.0307C13.7321 51.2869 13.4695 51.4853 13.1703 51.6258C12.8784 51.7663 12.5647 51.8324 12.2436 51.8324C11.9226 51.8324 11.6161 51.7663 11.3243 51.6258C11.0251 51.4853 10.7624 51.2869 10.5362 51.0307L5.74967 45.6086C5.52348 45.3524 5.34836 45.0548 5.22432 44.7159C5.10027 44.3853 5.0419 44.0299 5.0419 43.6662C5.0419 43.3108 5.10027 42.9554 5.22432 42.6248C5.34836 42.2859 5.52348 41.9883 5.74967 41.7321L9.0915 37.9466C8.6683 36.9878 8.30347 35.9959 8.01161 34.9793H3.28342C2.96238 34.9793 2.65592 34.9049 2.35676 34.7644C2.0576 34.6321 1.80222 34.4338 1.57603 34.1775C1.34983 33.9213 1.17471 33.6238 1.05067 33.2849C0.926631 32.9543 0.868258 32.5989 0.860962 32.2434V24.5732C0.868258 24.2095 0.926631 23.8623 1.05067 23.5317C1.17471 23.1928 1.34983 22.8953 1.57603 22.639C1.80222 22.3828 2.0576 22.1845 2.35676 22.0439C2.65592 21.9117 2.96238 21.8373 3.28342 21.8373H8.00431C8.29618 20.8124 8.66101 19.8288 9.08421 18.87L5.74967 15.0845C5.52348 14.8282 5.34836 14.5307 5.22432 14.1918C5.10027 13.8612 5.0419 13.514 5.0419 13.1504C5.0419 12.7867 5.10027 12.4313 5.22432 12.1007C5.34836 11.7618 5.52348 11.4642 5.74967 11.208L10.5362 5.7859C10.7624 5.52967 11.0251 5.3313 11.3243 5.19079C11.6161 5.05028 11.9226 4.98416 12.2436 4.98416C12.5647 4.98416 12.8784 5.05028 13.1703 5.19079C13.4695 5.3313 13.7321 5.52967 13.9583 5.7859L17.3002 9.57145C18.1466 9.09206 19.0149 8.67879 19.9196 8.34817V2.9922C19.9196 2.62852 19.978 2.28137 20.102 1.94249C20.2261 1.61187 20.4012 1.31432 20.6274 1.05809C20.8536 0.801863 21.1163 0.603493 21.4154 0.462982C21.7073 0.322471 22.0137 0.256348 22.3348 0.256348H29.106C29.4271 0.256348 29.7335 0.322471 30.0254 0.462982C30.3246 0.603493 30.5872 0.801863 30.8134 1.05809C31.0396 1.31432 31.2147 1.61187 31.3388 1.94249C31.4555 2.28137 31.5212 2.62852 31.5212 2.9922V8.33991C32.4187 8.67052 33.2943 9.08379 34.1407 9.57145L37.4825 5.7859C37.7087 5.52967 37.9714 5.3313 38.2632 5.19079C38.5624 5.05028 38.8688 4.98416 39.1899 4.98416C39.5109 4.98416 39.8174 5.05028 40.1166 5.19079C40.4157 5.3313 40.6711 5.52967 40.9046 5.7859L45.6912 11.208C45.9173 11.4642 46.0925 11.7618 46.2165 12.1007C46.3333 12.4313 46.3989 12.7867 46.3989 13.1504C46.3989 13.5058 46.3333 13.8612 46.2165 14.1918C46.0925 14.5307 45.9173 14.8282 45.6912 15.0845L42.342 18.87C42.7725 19.8288 43.1373 20.8207 43.4365 21.8373H48.1574C48.4784 21.8373 48.7849 21.9117 49.0768 22.0522C49.3759 22.1845 49.6386 22.3828 49.8648 22.639C50.091 22.8953 50.2661 23.1928 50.3901 23.5317C50.5142 23.8623 50.5726 24.2177 50.5726 24.5814V32.2434C50.5726 32.6071 50.5142 32.9543 50.3901 33.2931C50.2661 33.6238 50.091 33.9213 49.8648 34.1775C49.6386 34.4338 49.3759 34.6321 49.0768 34.7727C48.7849 34.9132 48.4784 34.9793 48.1574 34.9793H43.4365C43.1373 36.0042 42.7725 36.996 42.342 37.9548L45.6912 41.7321C45.9173 41.9883 46.0925 42.2859 46.2165 42.6248C46.3333 42.9554 46.3989 43.3108 46.3989 43.6662C46.3989 44.0299 46.3333 44.3853 46.2165 44.7159C46.0925 45.0548 45.9173 45.3524 45.6912 45.6086L40.9046 51.0307C40.6711 51.2869 40.4157 51.4853 40.1166 51.6258C39.8174 51.7663 39.5109 51.8324 39.1899 51.8324C38.8688 51.8324 38.5624 51.7663 38.2632 51.6258C37.9714 51.4853 37.7087 51.2869 37.4825 51.0307L34.1407 47.2451C33.2943 47.7328 32.4187 48.1378 31.5212 48.4767V53.8244C31.5212 54.1881 31.4555 54.5352 31.3315 54.8741C31.2074 55.2047 31.0396 55.5023 30.8061 55.7585C30.5799 56.0147 30.3246 56.2131 30.0254 56.3536C29.7335 56.4941 29.4198 56.5602 29.0987 56.5602ZM17.0813 44.1952C17.2929 44.1952 17.4899 44.2613 17.6796 44.377C18.8689 45.1457 20.1239 45.7408 21.4446 46.1541C21.7073 46.2285 21.9189 46.3938 22.0794 46.6418C22.2472 46.8815 22.3275 47.1542 22.3275 47.4683V53.8244C22.3275 53.8327 22.3348 53.8409 22.3421 53.8409H29.106C29.1133 53.8409 29.1206 53.8409 29.1206 53.8327V47.46C29.1206 47.1542 29.2009 46.8815 29.3614 46.6335C29.5292 46.3938 29.7408 46.2285 30.0035 46.1458C31.3242 45.7326 32.5792 45.1457 33.7685 44.377C34.002 44.22 34.2501 44.1704 34.5201 44.2117C34.7901 44.2531 35.0163 44.377 35.2133 44.5919L39.1826 49.0883C39.1899 49.0966 39.1899 49.0966 39.1972 49.0883L43.9838 43.6745C43.9838 43.6662 43.9838 43.658 43.9838 43.6497L40.0144 39.1533C39.8174 38.9384 39.708 38.6822 39.6715 38.3764C39.635 38.0706 39.6861 37.7895 39.8174 37.5168C40.496 36.1778 41.0213 34.7561 41.3789 33.2601C41.4518 32.9625 41.5978 32.7228 41.8094 32.5327C42.0283 32.3509 42.2691 32.2517 42.539 32.2517H48.1574C48.1647 32.2517 48.172 32.2517 48.172 32.2434V24.5732C48.172 24.5649 48.1647 24.5649 48.1574 24.5649H42.539C42.2691 24.5649 42.021 24.474 41.8094 24.2839C41.5905 24.0938 41.4518 23.8541 41.3789 23.5565C41.014 22.0605 40.496 20.6471 39.8101 19.2998C39.6788 19.0353 39.6277 18.746 39.6642 18.4402C39.7007 18.1427 39.8174 17.8782 40.0071 17.6633L43.9765 13.1669C43.9838 13.1586 43.9838 13.1504 43.9765 13.1504L39.1972 7.72C39.1972 7.71174 39.1899 7.71174 39.1826 7.72L35.2133 12.2164C35.0236 12.4313 34.7901 12.5635 34.5201 12.6049C34.2574 12.6462 34.002 12.5883 33.7685 12.4395C32.5792 11.6626 31.3242 11.0758 30.0035 10.6625C29.7481 10.5798 29.5292 10.4228 29.3687 10.1748C29.2009 9.93513 29.1206 9.65411 29.1206 9.34829V2.9922C29.1206 2.98393 29.1133 2.97566 29.106 2.97566H22.3348C22.3275 2.97566 22.3275 2.98393 22.3275 2.9922V9.35655C22.3275 9.66237 22.2399 9.93513 22.0794 10.1831C21.9116 10.4311 21.7 10.5881 21.4373 10.6708C20.1166 11.084 18.8616 11.6709 17.6723 12.4395C17.4388 12.5966 17.1907 12.6462 16.9207 12.6049C16.6508 12.5635 16.4246 12.4395 16.2276 12.2246L12.2582 7.72827C12.2582 7.72 12.2509 7.72 12.2436 7.72827L7.45707 13.1421C7.44977 13.1504 7.44977 13.1586 7.45707 13.1586L11.4264 17.6633C11.6161 17.8782 11.7256 18.1344 11.7621 18.4402C11.7985 18.746 11.7548 19.0271 11.6161 19.2916C10.9375 20.6388 10.4122 22.0605 10.0547 23.5565C9.98169 23.8541 9.83576 24.0938 9.62415 24.2839C9.40526 24.4657 9.16447 24.5649 8.8945 24.5649H3.28342C3.27613 24.5649 3.26883 24.5649 3.26883 24.5732V32.2352C3.26883 32.2434 3.27613 32.2517 3.28342 32.2517H8.90179C9.17177 32.2517 9.41255 32.3426 9.63145 32.5327C9.84305 32.7146 9.98898 32.9543 10.0619 33.2518C10.4195 34.7479 10.9448 36.1695 11.6234 37.5168C11.7548 37.7813 11.8058 38.0705 11.7693 38.3681C11.7329 38.6739 11.6234 38.9384 11.4337 39.1533L7.45707 43.6497C7.45707 43.658 7.45707 43.6662 7.45707 43.6662L12.2436 49.0966C12.2509 49.1049 12.2582 49.1049 12.2582 49.0966L16.2276 44.6002C16.461 44.3357 16.7456 44.2035 17.0813 44.1952ZM25.735 42.9223C24.0349 42.9306 22.3932 42.5669 20.8171 41.8313C19.241 41.0957 17.8547 40.046 16.6508 38.6739C13.0535 34.5991 11.9518 28.5819 13.7759 22.9697C14.3815 21.0934 15.3155 19.4486 16.5632 18.0352C17.8109 16.6218 19.2629 15.5721 20.9193 14.8778C25.8736 12.8115 31.1855 14.0596 34.7828 18.1427C38.3873 22.2175 39.4891 28.2347 37.6649 33.8469C37.052 35.7232 36.1253 37.368 34.8776 38.7814C33.6299 40.1948 32.1706 41.2527 30.5143 41.9388C28.9747 42.5917 27.3767 42.9141 25.735 42.9223ZM25.7496 16.6053C24.3778 16.6136 23.0426 16.8863 21.7511 17.4318C20.4231 17.9856 19.2629 18.8287 18.2633 19.9611C17.2637 21.0934 16.5194 22.4076 16.0306 23.9119C14.5129 28.5819 15.3812 33.3758 18.3509 36.7481C19.3213 37.8556 20.4377 38.7153 21.7146 39.3104C22.9842 39.9137 24.3049 40.2113 25.6839 40.203C27.063 40.203 28.3983 39.922 29.6825 39.3765C31.0104 38.8227 32.1706 37.9796 33.1702 36.8555C34.1699 35.7232 34.9141 34.409 35.403 32.9047C36.9207 28.2347 36.0597 23.4408 33.0827 20.0685C32.1195 18.9609 30.9958 18.1013 29.7262 17.498C28.4566 16.9029 27.1287 16.597 25.7496 16.6053Z" fill="black"/>
</g>
</svg>
